<?xml version="1.0" standalone="no"?><!DOCTYPE svg PUBLIC "-//W3C//DTD SVG 1.1//EN" "http://www.w3.org/Graphics/SVG/1.1/DTD/svg11.dtd"><svg t="1595416857907" class="icon" viewBox="0 0 1351 1024" version="1.1" xmlns="http://www.w3.org/2000/svg" p-id="8191" xmlns:xlink="http://www.w3.org/1999/xlink" width="263.8671875" height="200"><defs><style type="text/css"></style></defs><path d="M467.19776 479.648s2.688 2.688 8.096 2.688h393.44c2.688 0 5.376-2.688 8.096-2.688V358.4h409.6c-2.688-8.096-2.688-13.472-8.096-21.568l-264.096-277.568H335.16576l-264.096 277.568c-5.376 2.688-8.096 10.784-8.096 21.568h409.6v121.248h-5.376z m-409.6-61.952v476.96c0 37.728 40.416 70.048 88.928 70.048h1053.632c48.512 0 88.928-32.352 88.928-70.048V412.288H936.06176v64.672c0 32.352-29.632 59.296-61.984 59.296H480.63776c-35.04 0-61.984-26.944-61.984-59.296v-64.672H62.94176v5.376zM1200.18976 1024H146.55776C65.72576 1024 1.05376 964.704 1.05376 894.656V417.696c-2.688-48.512-2.688-94.304 29.632-123.968L313.62976 0H1038.52576l282.944 293.728c32.352 29.632 29.632 83.552 29.632 142.816v455.424C1345.72576 964.736 1278.33376 1024 1200.18976 1024z" p-id="8192" fill="#cdcdcd"></path></svg>