<?xml version="1.0" standalone="no"?><!DOCTYPE svg PUBLIC "-//W3C//DTD SVG 1.1//EN" "http://www.w3.org/Graphics/SVG/1.1/DTD/svg11.dtd"><svg t="1594628309728" class="icon" viewBox="0 0 1024 1024" version="1.1" xmlns="http://www.w3.org/2000/svg" p-id="12543" id="mx_n_1594628309729" xmlns:xlink="http://www.w3.org/1999/xlink" width="200" height="200"><path d="M889.1 484.37L724.48 199.24a55.262 55.262 0 0 0-47.86-27.63H347.38a55.262 55.262 0 0 0-47.86 27.63L134.9 484.37a55.285 55.285 0 0 0 0 55.27l164.62 285.13a55.262 55.262 0 0 0 47.86 27.63h329.23c19.74 0 37.99-10.53 47.86-27.63L889.1 539.63a55.266 55.266 0 0 0 0-55.26zM512 654.93c-78.81 0-142.93-64.12-142.93-142.93S433.19 369.07 512 369.07 654.93 433.19 654.93 512 590.81 654.93 512 654.93z" p-id="12544" fill="#30336B"></path></svg>